<?xml version="1.0" encoding="utf-8"?>
<!-- Generator: Adobe Illustrator 17.0.0, SVG Export Plug-In . SVG Version: 6.00 Build 0)  -->
<!DOCTYPE svg PUBLIC "-//W3C//DTD SVG 1.1//EN" "http://www.w3.org/Graphics/SVG/1.1/DTD/svg11.dtd">
<svg version="1.1" id="Layer_1" xmlns="http://www.w3.org/2000/svg" xmlns:xlink="http://www.w3.org/1999/xlink" x="0px" y="0px"
	 width="353.201px" height="219.609px" viewBox="0 0 353.201 219.609" enable-background="new 0 0 353.201 219.609"
	 xml:space="preserve">
<polygon fill="#CCCCCC" points="176.603,211.766 13.585,117.648 176.596,23.531 339.614,117.648 "/>
<polygon fill="#B3B3B3" points="203.769,196.078 40.753,101.961 163.013,31.374 326.029,125.491 "/>
<g>
	<polygon fill="#808080" points="13.585,117.648 13.58,101.962 176.601,196.08 176.603,211.766 	"/>
	<polygon fill="#999999" points="13.58,101.962 0,109.803 0,125.492 163.012,219.609 163.012,203.923 176.601,196.08 	"/>
	<polygon fill="#808080" points="163.012,203.923 176.601,196.08 176.603,211.766 163.012,219.609 	"/>
</g>
<g>
	<polygon fill="#808080" points="190.183,15.686 190.179,0 353.199,94.118 353.201,109.804 	"/>
	<polygon fill="#999999" points="190.179,0 176.598,7.841 176.598,23.53 339.611,117.647 339.611,101.961 353.199,94.118 	"/>
	<polygon fill="#808080" points="339.611,101.961 353.199,94.118 353.201,109.804 339.611,117.647 	"/>
</g>
</svg>
